<svg xmlns="http://www.w3.org/2000/svg" width="512" height="512" viewBox="0 0 512 512">
  <defs>
    <style>
      .cls-1 {
        fill: #e9ab51;
        fill-rule: evenodd;
      }
    </style>
  </defs>
  <path id="_x_" data-name="[x]" class="cls-1" d="M170.194,401.434c-0.422-3.8-9.295-6.76-24.082-6.76h-3.8c-11.83.422-30.42,5.492-46.9,11.83C93.3,305.1,84.849,163.144,84,110.754v-3.8a25.548,25.548,0,0,0,6.337-.845c9.718-2.535,46.053-17.745,66.756-23.66,6.337-1.69,9.295-3.8,8.872-5.915-0.422-3.8-9.295-6.76-24.5-6.76h-3.38c-19.857.845-57.883,14.787-75.205,24.5-5.07,1.267-8.872,3.8-8.872,7.183v0.422c-7.183,103.935-.422,212.518,4.225,324.9v0.845c1.268,10.985,17.745,19.857,28.73,19.857,5.07,0,8.873-2.112,8.873-7.182v-9.718c10.985-2.957,45.208-17.745,65.488-23.237C167.659,405.659,170.617,403.546,170.194,401.434Zm176.181-211.25c-1.267-8.028-16.478-23.66-27.04-23.66a8.116,8.116,0,0,0-5.07,1.69c-9.295,7.6-56.193,52.39-70.558,70.98-21.125-17.323-49.01-36.335-51.967-38.87-1.268-1.268-4.648-1.69-7.605-1.69-4.225,0-7.6.845-7.6,3.38a0.844,0.844,0,0,0,.422.845c8.45,19.435,36.758,38.87,48.165,53.235-5.07,4.647-35.49,38.87-39.715,53.235a44.882,44.882,0,0,0-2.112,14.365c0,8.45,2.112,16.9,8.027,16.9,14.788,0,35.913-35.913,62.108-59.15,21.97,17.322,48.165,43.095,58.305,43.095,5.492,0,8.872-3.8,8.872-8.028,0-.422-28.73-31.265-51.545-51.967C295.252,235.391,346.375,196.1,346.375,190.184Zm112.807,212.94c7.183-103.935.423-212.518-4.225-324.9V77.376c-0.845-5.915-7.605-9.3-16.055-9.3a42.18,42.18,0,0,0-21.547,6.337c-10.985,3.38-45.631,17.745-65.488,23.238q-9.507,3.169-8.873,6.337c0.423,3.381,9.295,6.338,24.083,6.338h3.8c11.83-.422,30-5.492,46.9-11.83,1.69,101.4,10.563,243.783,10.985,295.75,0,0.845.423,1.69,0.423,2.535v1.268a25.552,25.552,0,0,0-6.338.845c-9.717,2.535-46.053,17.745-66.755,23.66q-9.507,3.168-8.873,6.337c0.423,3.38,9.3,6.338,24.083,6.338h3.8c19.858-.423,57.883-14.788,75.206-24.5,4.647-.845,8.872-3.8,8.872-7.183v-0.422Z"/>
</svg>
